<?xml version="1.0" encoding="UTF-8"?>
<svg xmlns="http://www.w3.org/2000/svg" viewBox="0 0 720 272" width="720" height="272">
  <rect x="0" y="0" width="720" height="272" fill="#a3a3a3"/>
  <text x="12" y="26" font-family="system-ui, -apple-system, Segoe UI, sans-serif" font-size="18" font-weight="600" fill="#000000">LEAPPs UI Translation Progress</text>
  <text x="12" y="67" font-family="system-ui, -apple-system, Segoe UI, sans-serif" font-size="13" fill="#000000">Deutsch / German (de)</text>
  <rect x="230" y="53" width="380" height="18" rx="4" ry="4" fill="#e5e7eb"/>
  <rect x="230" y="53" width="304" height="18" rx="4" ry="4" fill="#ca8a04"/>
  <text x="620" y="67" font-family="system-ui, -apple-system, Segoe UI, sans-serif" font-size="13" fill="#000000">80.1%</text>
  <text x="12" y="103" font-family="system-ui, -apple-system, Segoe UI, sans-serif" font-size="13" fill="#000000">English / English (en)</text>
  <rect x="230" y="89" width="380" height="18" rx="4" ry="4" fill="#e5e7eb"/>
  <rect x="230" y="89" width="380" height="18" rx="4" ry="4" fill="#16a34a"/>
  <text x="620" y="103" font-family="system-ui, -apple-system, Segoe UI, sans-serif" font-size="13" fill="#000000">100.0%</text>
  <text x="12" y="139" font-family="system-ui, -apple-system, Segoe UI, sans-serif" font-size="13" fill="#000000">Español / Spanish (es)</text>
  <rect x="230" y="125" width="380" height="18" rx="4" ry="4" fill="#e5e7eb"/>
  <rect x="230" y="125" width="288" height="18" rx="4" ry="4" fill="#ca8a04"/>
  <text x="620" y="139" font-family="system-ui, -apple-system, Segoe UI, sans-serif" font-size="13" fill="#000000">75.9%</text>
  <text x="12" y="175" font-family="system-ui, -apple-system, Segoe UI, sans-serif" font-size="13" fill="#000000">Français / French (fr)</text>
  <rect x="230" y="161" width="380" height="18" rx="4" ry="4" fill="#e5e7eb"/>
  <rect x="230" y="161" width="314" height="18" rx="4" ry="4" fill="#ca8a04"/>
  <text x="620" y="175" font-family="system-ui, -apple-system, Segoe UI, sans-serif" font-size="13" fill="#000000">82.5%</text>
  <text x="12" y="206" font-family="system-ui, -apple-system, Segoe UI, sans-serif" font-size="11" fill="#6b7280">Source key file: locales/en/translation_en.json</text>
  <text x="12" y="220" font-family="system-ui, -apple-system, Segoe UI, sans-serif" font-size="11" fill="#6b7280">Total source keys: 166</text>
  <text x="12" y="234" font-family="system-ui, -apple-system, Segoe UI, sans-serif" font-size="11" fill="#6b7280">Last updated: 2026-05-22 09:21:51</text>
  <text x="12" y="248" font-family="system-ui, -apple-system, Segoe UI, sans-serif" font-size="11" fill="#6b7280">Generated by: python scripts/generate-language-stats.py</text>
</svg>
